<svg width="104" height="24" viewBox="0 0 104 24" fill="none" xmlns="http://www.w3.org/2000/svg">
<g clip-path="url(#clip0_1_15307)">
<path fill-rule="evenodd" clip-rule="evenodd" d="M3.79633 -0.000671387H6.47197L0 6.47129V3.79566C0 1.699 1.69967 -0.000671387 3.79633 -0.000671387ZM0 15.9178V9.95632L6.57172 3.38462L16.4289 13.2418L19.5092 10.1614L23.4107 14.0629V19.6137C23.4107 19.7458 23.404 19.8764 23.3908 20.005L19.5089 16.1232L16.4285 19.2035L6.57141 9.34636L0 15.9178ZM0 19.4028V19.6137C0 21.7104 1.69967 23.41 3.79633 23.41H19.6144C20.6373 23.41 21.5657 23.0055 22.2484 22.3476L19.5089 19.6082L16.4285 22.6885L6.57141 12.8314L0 19.4028ZM23.4107 3.79566V10.5779L19.5092 6.67637L16.4289 9.75673L6.67145 -0.000671387H19.6144C21.711 -0.000671387 23.4107 1.699 23.4107 3.79566Z" fill="white"/>
<path d="M35.993 18.6233C34.6516 18.6233 33.4621 18.3386 32.4245 17.7692C31.3993 17.1997 30.6021 16.3962 30.0327 15.3585C29.4633 14.3082 29.1787 13.0934 29.1787 11.714C29.1787 10.3473 29.4695 9.14516 30.0517 8.1075C30.6466 7.05719 31.4628 6.24731 32.5004 5.67786C33.5508 5.09573 34.7403 4.80469 36.069 4.80469C37.347 4.80469 38.4923 5.0641 39.5047 5.58294L39.2388 7.8987C38.6946 7.65827 38.1695 7.47478 37.6633 7.34824C37.1698 7.20905 36.6322 7.13944 36.05 7.13944C34.6958 7.13944 33.652 7.55703 32.9179 8.39222C32.1966 9.22741 31.8361 10.3347 31.8361 11.714C31.8361 13.0934 32.1904 14.2006 32.8989 15.0358C33.6202 15.871 34.6516 16.2886 35.993 16.2886C36.5877 16.2886 37.1319 16.2253 37.6253 16.0988C38.1315 15.9722 38.6694 15.7824 39.2388 15.5293L39.5047 17.8451C38.4036 18.3639 37.233 18.6233 35.993 18.6233Z" fill="white"/>
<path d="M45.308 18.5449C44.3083 18.5449 43.4413 18.3234 42.7075 17.8805C41.9735 17.4376 41.4103 16.8428 41.0181 16.0962C40.6258 15.3496 40.4297 14.5271 40.4297 13.6286C40.4297 12.7301 40.6258 11.9013 41.0181 11.142C41.4103 10.3827 41.9735 9.78165 42.7075 9.33875C43.4413 8.89584 44.3083 8.67438 45.308 8.67438C46.3076 8.67438 47.1746 8.89584 47.9084 9.33875C48.6424 9.78165 49.2056 10.3827 49.5978 11.142C49.9901 11.9013 50.1862 12.7301 50.1862 13.6286C50.1862 14.5271 49.9901 15.3496 49.5978 16.0962C49.2056 16.8428 48.6424 17.4376 47.9084 17.8805C47.1746 18.3234 46.3076 18.5449 45.308 18.5449ZM45.308 16.6087C46.08 16.6087 46.6809 16.3367 47.1111 15.7925C47.5541 15.2484 47.7757 14.5271 47.7757 13.6286C47.7757 12.7175 47.5541 11.9899 47.1111 11.4457C46.6809 10.8889 46.08 10.6105 45.308 10.6105C44.5359 10.6105 43.9285 10.8889 43.4858 11.4457C43.0556 11.9899 42.8405 12.7175 42.8405 13.6286C42.8405 14.5271 43.0556 15.2484 43.4858 15.7925C43.9285 16.3367 44.5359 16.6087 45.308 16.6087Z" fill="white"/>
<path d="M61.0178 18.5449C60.0182 18.5449 59.1512 18.3234 58.4171 17.8805C57.6833 17.4376 57.1202 16.8428 56.7279 16.0962C56.3357 15.3496 56.1395 14.5271 56.1395 13.6286C56.1395 12.7301 56.3357 11.9013 56.7279 11.142C57.1202 10.3827 57.6833 9.78165 58.4171 9.33875C59.1512 8.89584 60.0182 8.67438 61.0178 8.67438C62.0174 8.67438 62.8842 8.89584 63.6182 9.33875C64.3523 9.78165 64.9154 10.3827 65.3077 11.142C65.6999 11.9013 65.8961 12.7301 65.8961 13.6286C65.8961 14.5271 65.6999 15.3496 65.3077 16.0962C64.9154 16.8428 64.3523 17.4376 63.6182 17.8805C62.8842 18.3234 62.0174 18.5449 61.0178 18.5449ZM61.0178 16.6087C61.7896 16.6087 62.3907 16.3367 62.8209 15.7925C63.2639 15.2484 63.4853 14.5271 63.4853 13.6286C63.4853 12.7175 63.2639 11.9899 62.8209 11.4457C62.3907 10.8889 61.7896 10.6105 61.0178 10.6105C60.2458 10.6105 59.6384 10.8889 59.1954 11.4457C58.7652 11.9899 58.55 12.7175 58.55 13.6286C58.55 14.5271 58.7652 15.2484 59.1954 15.7925C59.6384 16.3367 60.2458 16.6087 61.0178 16.6087Z" fill="white"/>
<path d="M67.5407 8.86419H69.7426L69.7996 9.87022C70.0779 9.55387 70.4322 9.27546 70.8627 9.03503C71.3054 8.7946 71.7674 8.67438 72.2483 8.67438C72.4 8.67438 72.5392 8.68705 72.6658 8.71235L72.4949 11.0281C72.2546 10.9648 71.9825 10.9332 71.6787 10.9332C71.2864 10.9332 70.9259 11.0281 70.5968 11.2179C70.2678 11.3951 70.0337 11.6165 69.8945 11.8823V18.355H67.5407V8.86419Z" fill="white"/>
<path d="M75.7455 18.5415C74.9607 18.5415 74.3029 18.2884 73.7712 17.7823C73.2525 17.2634 72.9929 16.5675 72.9929 15.6943C72.9929 14.8717 73.2905 14.2137 73.8851 13.7202C74.48 13.214 75.1823 12.8597 75.9921 12.6572C76.8021 12.4421 77.5804 12.3219 78.3269 12.2966C78.3017 11.7398 78.156 11.3412 77.8904 11.1007C77.6373 10.8603 77.2134 10.7401 76.6185 10.7401C76.201 10.7401 75.7897 10.797 75.3847 10.9109C74.9925 11.0248 74.537 11.2083 74.0181 11.4614L73.8092 9.54424C74.9607 8.98742 76.1123 8.70905 77.2638 8.70905C78.3774 8.70905 79.2254 9.01273 79.8075 9.62016C80.4022 10.2276 80.6995 11.1956 80.6995 12.5243V15.0869C80.6995 15.5677 80.7185 15.9157 80.7564 16.1309C80.8072 16.3333 80.8831 16.4662 80.9843 16.5295C81.0982 16.5801 81.2816 16.6054 81.5347 16.6054H81.8385L81.6297 18.5415H80.7754C80.2567 18.5415 79.82 18.4466 79.4657 18.2568C79.1114 18.0543 78.8394 17.7823 78.6495 17.4406C78.3459 17.7823 77.9282 18.0543 77.3967 18.2568C76.8781 18.4466 76.3274 18.5415 75.7455 18.5415ZM76.7324 16.7383C76.9727 16.7383 77.2448 16.6813 77.5486 16.5675C77.8525 16.4409 78.118 16.2701 78.3459 16.0549V13.891C77.5866 13.929 76.916 14.0935 76.3339 14.3846C75.7517 14.6756 75.4607 15.0806 75.4607 15.5994C75.4607 15.9917 75.5619 16.2827 75.7645 16.4725C75.9669 16.6497 76.2894 16.7383 76.7324 16.7383Z" fill="white"/>
<path d="M91.8056 4.12317V18.3594H89.5847L89.5468 17.752C89.18 18.0177 88.794 18.2202 88.389 18.3594C87.9967 18.486 87.5285 18.5492 86.9843 18.5492C86.0606 18.5492 85.2634 18.3278 84.5925 17.8849C83.9347 17.442 83.4347 16.8472 83.0932 16.1006C82.7514 15.354 82.5805 14.5314 82.5805 13.633C82.5805 12.7345 82.7514 11.912 83.0932 11.1654C83.4347 10.4188 83.9347 9.82399 84.5925 9.38108C85.2634 8.93818 86.0606 8.71674 86.9843 8.71674C87.908 8.71674 88.7305 8.96981 89.4518 9.476V4.12317H91.8056ZM87.3261 16.6131C88.0727 16.6131 88.6293 16.3474 88.9963 15.8159C89.3761 15.2844 89.5657 14.5568 89.5657 13.633C89.5657 12.7092 89.3761 11.9816 88.9963 11.4501C88.6293 10.9186 88.0727 10.6529 87.3261 10.6529C86.5921 10.6529 86.0162 10.9249 85.5987 11.4691C85.1937 12.0132 84.9913 12.7345 84.9913 13.633C84.9913 14.5314 85.1937 15.2528 85.5987 15.7969C86.0162 16.341 86.5921 16.6131 87.3261 16.6131Z" fill="white"/>
<path d="M98.294 18.5449C97.2943 18.5449 96.4274 18.3234 95.6936 17.8805C94.9595 17.4376 94.3964 16.8428 94.0041 16.0962C93.6118 15.3496 93.4157 14.5271 93.4157 13.6286C93.4157 12.7301 93.6118 11.9013 94.0041 11.142C94.3964 10.3827 94.9595 9.78165 95.6936 9.33875C96.4274 8.89584 97.2943 8.67438 98.294 8.67438C99.2936 8.67438 100.161 8.89584 100.894 9.33875C101.628 9.78165 102.192 10.3827 102.584 11.142C102.976 11.9013 103.172 12.7301 103.172 13.6286C103.172 14.5271 102.976 15.3496 102.584 16.0962C102.192 16.8428 101.628 17.4376 100.894 17.8805C100.161 18.3234 99.2936 18.5449 98.294 18.5449ZM98.294 16.6087C99.066 16.6087 99.6669 16.3367 100.097 15.7925C100.54 15.2484 100.761 14.5271 100.761 13.6286C100.761 12.7175 100.54 11.9899 100.097 11.4457C99.6669 10.8889 99.066 10.6105 98.294 10.6105C97.5219 10.6105 96.9146 10.8889 96.4718 11.4457C96.0414 11.9899 95.8262 12.7175 95.8262 13.6286C95.8262 14.5271 96.0414 15.2484 96.4718 15.7925C96.9146 16.3367 97.5219 16.6087 98.294 16.6087Z" fill="white"/>
<path d="M54.408 3.81128H51.8771V18.3639H54.408V3.81128Z" fill="white"/>
</g>
<defs>
<clipPath id="clip0_1_15307">
<rect width="103.267" height="23.4107" fill="white"/>
</clipPath>
</defs>
</svg>
