<svg width="126" height="24" viewBox="0 0 126 24" fill="none" xmlns="http://www.w3.org/2000/svg">
<g clip-path="url(#clip0_1_15317)">
<path d="M117.944 22.1128C116.556 22.1128 115.343 21.8105 114.304 21.2061C113.275 20.5929 112.472 19.7423 111.895 18.6542C111.319 17.5575 111.031 16.2794 111.031 14.8201C111.031 13.2915 111.315 11.9703 111.882 10.8563C112.45 9.73368 113.24 8.87014 114.252 8.26565C115.273 7.65252 116.469 7.34595 117.839 7.34595C119.262 7.34595 120.471 7.6698 121.466 8.31747C122.469 8.96511 123.22 9.88913 123.718 11.0895C124.224 12.2898 124.442 13.719 124.372 15.377H122.016V14.548C121.989 12.8295 121.636 11.5472 120.955 10.7009C120.274 9.84595 119.262 9.4185 117.918 9.4185C116.478 9.4185 115.382 9.87618 114.632 10.7915C113.881 11.7069 113.506 13.0195 113.506 14.7294C113.506 16.3788 113.881 17.6568 114.632 18.5636C115.382 19.4703 116.451 19.9237 117.839 19.9237C118.773 19.9237 119.585 19.7121 120.274 19.2889C120.964 18.8658 121.505 18.257 121.898 17.4625L124.136 18.2268C123.586 19.4617 122.757 20.4202 121.649 21.1024C120.549 21.776 119.314 22.1128 117.944 22.1128ZM112.72 15.377V13.5247H123.168V15.377H112.72Z" fill="white"/>
<path d="M103.881 21.7174V7.72773H105.963V11.1085L105.622 10.6681C105.788 10.2364 106.002 9.83911 106.264 9.47643C106.534 9.11372 106.836 8.8158 107.167 8.58263C107.534 8.28904 107.948 8.0645 108.411 7.90905C108.874 7.75363 109.345 7.66296 109.825 7.63705C110.305 7.6025 110.754 7.63273 111.173 7.72773V9.89093C110.685 9.76139 110.148 9.72684 109.563 9.7873C108.978 9.84775 108.437 10.0593 107.94 10.422C107.486 10.7415 107.132 11.1301 106.879 11.5878C106.635 12.0455 106.465 12.5421 106.369 13.0775C106.273 13.6042 106.225 14.144 106.225 14.6966V21.7174H103.881Z" fill="white"/>
<path d="M94.7318 22.1128C93.6758 22.1128 92.7901 21.9228 92.0742 21.5429C91.3672 21.1542 90.8306 20.6447 90.4641 20.0143C90.1061 19.3839 89.9272 18.6931 89.9272 17.9418C89.9272 17.2078 90.0669 16.5731 90.3462 16.0377C90.6342 15.4936 91.0356 15.0446 91.5506 14.6905C92.0656 14.3278 92.6808 14.0428 93.3967 13.8356C94.0685 13.6543 94.8192 13.4988 95.6482 13.3693C96.4863 13.2311 97.3328 13.1059 98.188 12.9936C99.0436 12.8814 99.8421 12.7734 100.584 12.6698L99.7462 13.1491C99.7724 11.9055 99.5191 10.9858 98.9869 10.39C98.463 9.79414 97.5554 9.49622 96.2637 9.49622C95.4084 9.49622 94.6577 9.6905 94.0118 10.0791C93.3748 10.4591 92.9253 11.0808 92.6634 11.9444L90.4508 11.2838C90.7913 10.0575 91.4502 9.09465 92.4277 8.39516C93.4052 7.6957 94.6926 7.34595 96.29 7.34595C97.5729 7.34595 98.6727 7.5748 99.589 8.03248C100.514 8.48152 101.178 9.16374 101.579 10.0791C101.78 10.5109 101.906 10.9815 101.959 11.491C102.011 11.9919 102.037 12.5187 102.037 13.0713V21.7242H99.9686V18.3693L100.453 18.6801C99.9207 19.8114 99.1744 20.6663 98.2143 21.2449C97.2631 21.8235 96.1022 22.1128 94.7318 22.1128ZM95.0853 20.1827C95.9232 20.1827 96.6476 20.0359 97.2586 19.7423C97.8782 19.4401 98.3759 19.0472 98.7512 18.5636C99.1266 18.0713 99.3708 17.5359 99.4842 16.9573C99.6153 16.5256 99.685 16.0463 99.6936 15.5195C99.7113 14.9841 99.7199 14.5739 99.7199 14.289L100.532 14.6387C99.7722 14.7423 99.0262 14.8416 98.2929 14.9366C97.5599 15.0316 96.8659 15.1352 96.2114 15.2475C95.5567 15.3511 94.9675 15.4764 94.4439 15.6231C94.06 15.744 93.6976 15.8995 93.3574 16.0895C93.0257 16.2794 92.7549 16.5256 92.5455 16.8278C92.3447 17.1214 92.2443 17.4884 92.2443 17.9289C92.2443 18.3088 92.3406 18.6715 92.5325 19.0169C92.7333 19.3624 93.0387 19.643 93.4489 19.8589C93.8677 20.0748 94.4135 20.1827 95.0853 20.1827Z" fill="white"/>
<path d="M75.6961 21.7182L71.3757 7.71564L73.6931 7.72859L76.8481 17.9618L80.0296 7.72859H82.0848L85.2531 17.9618L88.4213 7.72859H90.7255L86.4051 21.7182H84.4678L81.0506 11.0835L77.6337 21.7182H75.6961Z" fill="white"/>
<path d="M64.0517 22.1128C62.9957 22.1128 62.1097 21.9228 61.3941 21.5429C60.6871 21.1542 60.1502 20.6447 59.7837 20.0143C59.4258 19.3839 59.2468 18.6931 59.2468 17.9418C59.2468 17.2078 59.3865 16.5731 59.6659 16.0377C59.9538 15.4936 60.3555 15.0446 60.8702 14.6905C61.3853 14.3278 62.0007 14.0428 62.7163 13.8356C63.3884 13.6543 64.1389 13.4988 64.9681 13.3693C65.806 13.2311 66.6527 13.1059 67.5079 12.9936C68.3632 12.8814 69.1618 12.7734 69.9036 12.6698L69.0658 13.1491C69.0921 11.9055 68.839 10.9858 68.3065 10.39C67.7829 9.79414 66.8751 9.49622 65.5833 9.49622C64.7281 9.49622 63.9774 9.6905 63.3315 10.0791C62.6944 10.4591 62.245 11.0808 61.983 11.9444L59.7707 11.2838C60.1109 10.0575 60.7698 9.09465 61.7473 8.39516C62.7249 7.6957 64.0125 7.34595 65.6096 7.34595C66.8925 7.34595 67.9923 7.5748 68.9087 8.03248C69.8339 8.48152 70.4972 9.16374 70.8986 10.0791C71.0994 10.5109 71.2261 10.9815 71.2784 11.491C71.3307 11.9919 71.3569 12.5187 71.3569 13.0713V21.7242H69.2885V18.3693L69.7728 18.6801C69.2403 19.8114 68.4941 20.6663 67.534 21.2449C66.5827 21.8235 65.4221 22.1128 64.0517 22.1128ZM64.4052 20.1827C65.2431 20.1827 65.9675 20.0359 66.5783 19.7423C67.1981 19.4401 67.6955 19.0472 68.0708 18.5636C68.4462 18.0713 68.6904 17.5359 68.8041 16.9573C68.935 16.5256 69.0047 16.0463 69.0135 15.5195C69.0309 14.9841 69.0395 14.5739 69.0395 14.289L69.8514 14.6387C69.0921 14.7423 68.3458 14.8416 67.6125 14.9366C66.8795 15.0316 66.1855 15.1352 65.531 15.2475C64.8763 15.3511 64.2874 15.4764 63.7635 15.6231C63.3796 15.744 63.0175 15.8995 62.677 16.0895C62.3454 16.2794 62.0748 16.5256 61.8652 16.8278C61.6646 17.1214 61.5642 17.4884 61.5642 17.9289C61.5642 18.3088 61.6602 18.6715 61.8522 19.0169C62.053 19.3624 62.3584 19.643 62.7686 19.8589C63.1876 20.0748 63.7331 20.1827 64.4052 20.1827Z" fill="white"/>
<path d="M55.3541 21.7091V2.66766H57.6845V21.7091H55.3541Z" fill="white"/>
<path d="M47.3077 22.1128C45.92 22.1128 44.7068 21.8105 43.6682 21.2061C42.6383 20.5929 41.8354 19.7423 41.2592 18.6542C40.6833 17.5575 40.3951 16.2794 40.3951 14.8201C40.3951 13.2915 40.6789 11.9703 41.2462 10.8563C41.8135 9.73368 42.6032 8.87014 43.6159 8.26565C44.6368 7.65252 45.8326 7.34595 47.2029 7.34595C48.6255 7.34595 49.8345 7.6698 50.8295 8.31747C51.833 8.96511 52.5837 9.88913 53.0811 11.0895C53.5875 12.2898 53.8055 13.719 53.7358 15.377H51.3791V14.548C51.3531 12.8295 50.9996 11.5472 50.3189 10.7009C49.6382 9.84595 48.6255 9.4185 47.2815 9.4185C45.8415 9.4185 44.7461 9.87618 43.9954 10.7915C43.2449 11.7069 42.8696 13.0195 42.8696 14.7294C42.8696 16.3788 43.2449 17.6568 43.9954 18.5636C44.7461 19.4703 45.8152 19.9237 47.2029 19.9237C48.1367 19.9237 48.9486 19.7121 49.6382 19.2889C50.3275 18.8658 50.8688 18.257 51.2616 17.4625L53.5001 18.2268C52.9502 19.4617 52.1212 20.4202 51.0126 21.1024C49.9128 21.776 48.6781 22.1128 47.3077 22.1128ZM42.084 15.377V13.5247H52.5315V15.377H42.084Z" fill="white"/>
<path d="M32.5812 22.1019C31.2634 22.1019 30.1332 21.7781 29.1905 21.1304C28.2479 20.4741 27.519 19.5889 27.0042 18.475C26.498 17.361 26.2447 16.1045 26.2447 14.7055C26.2447 13.3065 26.498 12.0501 27.0042 10.9361C27.519 9.82209 28.2479 8.94559 29.1905 8.30656C30.1332 7.65889 31.259 7.33504 32.5682 7.33504C33.9036 7.33504 35.025 7.65457 35.9328 8.2936C36.8406 8.93264 37.5255 9.80914 37.9883 10.9231C38.4596 12.0371 38.6953 13.2979 38.6953 14.7055C38.6953 16.0958 38.4596 17.3523 37.9883 18.475C37.5255 19.5889 36.8406 20.4741 35.9328 21.1304C35.025 21.7781 33.9081 22.1019 32.5812 22.1019ZM32.8694 19.9905C33.8207 19.9905 34.6018 19.766 35.2128 19.3169C35.8238 18.8592 36.2733 18.2331 36.5613 17.4387C36.8581 16.6356 37.0063 15.7245 37.0063 14.7055C37.0063 13.6693 36.8581 12.7582 36.5613 11.9724C36.2733 11.1779 35.828 10.5604 35.2258 10.12C34.6236 9.67096 33.8599 9.44645 32.9347 9.44645C31.9746 9.44645 31.1804 9.6796 30.552 10.1459C29.9324 10.6123 29.4699 11.2427 29.1643 12.0371C28.8675 12.8316 28.7192 13.7211 28.7192 14.7055C28.7192 15.6986 28.8719 16.5967 29.1773 17.3998C29.4829 18.1943 29.941 18.8247 30.552 19.291C31.1716 19.7573 31.9442 19.9905 32.8694 19.9905ZM37.0063 21.7133V11.4154H36.7444V3.06042H39.0881V21.7133H37.0063Z" fill="white"/>
<path d="M122.721 4.54886V4.47415L124.24 1.94348H122.855V1.3855H125.297V1.46019L123.787 3.98648H125.253V4.54886H122.721Z" fill="white"/>
<path d="M119.545 4.54886L120.522 1.3855H121.423L122.4 4.54886H121.779L120.908 1.75895H121.024L120.167 4.54886H119.545ZM120.131 3.88982V3.33184H121.819V3.88982H120.131Z" fill="white"/>
<path fill-rule="evenodd" clip-rule="evenodd" d="M11.8305 -0.000671387H0V23.41H11.8305C18.3644 23.41 23.6611 18.1694 23.6611 11.7047C23.6611 5.24 18.3644 -0.000671387 11.8305 -0.000671387ZM12.9399 20.0746C12.668 19.9954 12.3892 19.6752 12.3299 19.3687C12.2916 19.169 12.3369 19.0313 12.6262 18.4769C13.7973 16.2386 14.3062 14.1794 14.3062 11.6829C14.3062 9.26903 13.8565 7.38889 12.7377 5.13686C12.4972 4.65476 12.302 4.20368 12.302 4.13824C12.302 3.89721 12.5042 3.54941 12.7238 3.41511C13.0235 3.22917 13.5289 3.26361 13.7729 3.48742C13.867 3.57352 14.1075 3.96607 14.3096 4.35864C15.1113 5.91163 15.6585 7.61616 15.9304 9.38955C16.0977 10.488 16.1325 12.5679 15.9966 13.5734C15.7491 15.4259 15.2542 17.0823 14.4595 18.7007C13.9785 19.6786 13.6788 20.0815 13.4278 20.0815C13.379 20.0815 13.2954 20.0953 13.2466 20.1091C13.1978 20.1229 13.0584 20.1091 12.9399 20.0746ZM9.68098 18.3908C9.26271 18.2703 8.95949 17.7606 9.08149 17.3818C9.10934 17.2889 9.30802 16.8653 9.52065 16.4383C10.4164 14.6305 10.7893 12.6953 10.6081 10.7945C10.4582 9.23114 10.1759 8.24632 9.46139 6.80693C8.98389 5.83931 8.95949 5.69125 9.23831 5.29871C9.50322 4.92682 10.1655 4.86826 10.5105 5.18163C10.751 5.39857 11.5004 6.94469 11.7897 7.81931C12.7447 10.7118 12.5983 13.8213 11.3749 16.6622C10.744 18.1188 10.3014 18.5699 9.68098 18.3908ZM5.77727 16.0251C5.84001 16.2972 6.06306 16.5692 6.321 16.6828C6.43602 16.7345 6.63119 16.762 6.75319 16.7517C7.15403 16.7 7.35268 16.4866 7.75353 15.6842C8.45059 14.2827 8.70156 13.2394 8.70504 11.7208C8.70853 10.2435 8.44016 9.08997 7.7849 7.76079C7.35965 6.89646 7.1122 6.65887 6.63468 6.65887C6.35237 6.65887 6.26523 6.68985 6.06306 6.87924C5.65527 7.26149 5.66573 7.45431 6.1502 8.42193C7.2516 10.6292 7.24114 12.802 6.11186 15.0609C5.80516 15.6739 5.73893 15.8598 5.77727 16.0251ZM3.18409 15.0919C2.97844 15.0093 2.74493 14.7338 2.67522 14.4928C2.59854 14.2242 2.66128 14.0107 2.96798 13.5114C3.36534 12.8674 3.45597 12.5231 3.45597 11.6829C3.45597 10.8427 3.36534 10.4949 2.96798 9.85441C2.83207 9.63747 2.69962 9.37576 2.66825 9.27247C2.53929 8.84892 2.8983 8.32896 3.37928 8.23943C3.78707 8.16366 4.06592 8.34272 4.44234 8.92123C5.52631 10.5948 5.52631 12.8261 4.44234 14.4859C4.05895 15.0678 3.63371 15.2745 3.18409 15.0919Z" fill="white"/>
</g>
<defs>
<clipPath id="clip0_1_15317">
<rect width="125.377" height="23.4107" fill="white"/>
</clipPath>
</defs>
</svg>
