<svg width="44" height="44" viewBox="0 0 44 44" fill="none" xmlns="http://www.w3.org/2000/svg">
<g clip-path="url(#clip0_1_15657)">
<path d="M27.3163 9.55313V25.9406C27.3163 26.3028 27.1724 26.6502 26.9163 26.9063C26.6602 27.1624 26.3129 27.3062 25.9507 27.3062H19.1226C18.7604 27.3062 18.413 27.1624 18.1569 26.9063C17.9008 26.6502 17.7569 26.3028 17.7569 25.9406V9.55313C17.7569 9.19094 17.9008 8.84359 18.1569 8.58748C18.413 8.33138 18.7604 8.1875 19.1226 8.1875H25.9507C26.3129 8.1875 26.6602 8.33138 26.9163 8.58748C27.1724 8.84359 27.3163 9.19094 27.3163 9.55313ZM38.2413 8.1875H31.4132C31.051 8.1875 30.7036 8.33138 30.4475 8.58748C30.1914 8.84359 30.0476 9.19094 30.0476 9.55313V18.4297C30.0476 18.6108 30.1195 18.7845 30.2475 18.9125C30.3756 19.0406 30.5493 19.1125 30.7304 19.1125H38.9241C39.1052 19.1125 39.2789 19.0406 39.4069 18.9125C39.535 18.7845 39.6069 18.6108 39.6069 18.4297V9.55313C39.6069 9.19094 39.4631 8.84359 39.207 8.58748C38.9508 8.33138 38.6035 8.1875 38.2413 8.1875ZM38.9241 21.8438H30.7304C30.5493 21.8438 30.3756 21.9157 30.2475 22.0437C30.1195 22.1718 30.0476 22.3455 30.0476 22.5266V30.0375C30.0476 30.7619 30.3353 31.4566 30.8475 31.9688C31.3597 32.481 32.0544 32.7688 32.7788 32.7688H36.8757C37.6001 32.7688 38.2948 32.481 38.807 31.9688C39.3192 31.4566 39.6069 30.7619 39.6069 30.0375V22.5266C39.6069 22.3455 39.535 22.1718 39.4069 22.0437C39.2789 21.9157 39.1052 21.8438 38.9241 21.8438ZM13.6601 8.1875H6.83193C6.46975 8.1875 6.1224 8.33138 5.86629 8.58748C5.61019 8.84359 5.46631 9.19094 5.46631 9.55313V18.4297C5.46631 18.6108 5.53825 18.7845 5.6663 18.9125C5.79435 19.0406 5.96803 19.1125 6.14912 19.1125H14.3429C14.524 19.1125 14.6976 19.0406 14.8257 18.9125C14.9537 18.7845 15.0257 18.6108 15.0257 18.4297V9.55313C15.0257 9.19094 14.8818 8.84359 14.6257 8.58748C14.3696 8.33138 14.0222 8.1875 13.6601 8.1875ZM14.3429 21.8438H6.14912C5.96803 21.8438 5.79435 21.9157 5.6663 22.0437C5.53825 22.1718 5.46631 22.3455 5.46631 22.5266V35.5C5.46631 36.2244 5.75406 36.9191 6.26627 37.4313C6.77848 37.9435 7.47319 38.2313 8.19756 38.2313H12.2944C13.0188 38.2313 13.7135 37.9435 14.2257 37.4313C14.7379 36.9191 15.0257 36.2244 15.0257 35.5V22.5266C15.0257 22.3455 14.9537 22.1718 14.8257 22.0437C14.6976 21.9157 14.524 21.8438 14.3429 21.8438Z" fill="#FF4C00"/>
</g>
<defs>
<clipPath id="clip0_1_15657">
<rect width="43.7" height="43.7" fill="white"/>
</clipPath>
</defs>
</svg>
