<svg width="137" height="24" viewBox="0 0 137 24" fill="none" xmlns="http://www.w3.org/2000/svg">
<g clip-path="url(#clip0_1_15296)">
<path d="M43.9187 3.16443V22.5871H41.5643V14.1412H31.029V22.5871H28.6749V3.16443H31.029V11.8458H41.5643V3.16443H43.9187Z" fill="white"/>
<path d="M53.1349 7.57697C56.4896 7.57697 59.2266 9.16611 59.2266 12.5798V19.8192V22.8209L56.8723 22.8503V20.6726C55.7834 22.0557 53.5175 22.8797 51.634 22.8797C48.5734 22.8797 46.3369 21.5849 46.3369 18.9363C46.3369 16.8763 47.8084 15.3166 50.1037 14.6104C51.8106 14.0806 53.6645 13.8452 56.8723 13.7863V12.8741C56.8723 10.9318 55.342 9.63695 53.1349 9.63695C50.8984 9.63695 49.1327 10.5787 48.338 12.4326L46.6017 11.1672C47.367 8.98954 49.6917 7.57697 53.1349 7.57697ZM48.6913 18.9363C48.6913 20.1723 50.0743 20.908 51.7518 20.908C54.1059 20.908 56.8723 19.5837 56.8723 17.6415V15.6698C53.8705 15.7875 52.2226 16.0229 50.8393 16.4055C49.6035 16.7586 48.6913 17.6415 48.6913 18.9363Z" fill="white"/>
<path d="M79.1908 7.57697C82.016 7.57697 84.8115 9.28381 84.8115 13.1684V22.5854H82.4574V13.4038C82.4574 10.7258 80.9271 9.63695 78.9848 9.63695C76.6893 9.63695 74.6294 11.3732 74.6294 14.5221V22.5854H72.2751V13.4038C72.2751 10.7258 70.7448 9.63695 68.8025 9.63695C66.8604 9.63695 64.4473 11.0789 64.4473 14.7281V22.5854H62.093V7.87126H64.1528L64.3001 10.1667C65.3595 8.37153 67.184 7.57697 69.0085 7.57697C71.0686 7.57697 73.0991 8.48926 74.0701 10.461C74.9826 8.45981 77.3367 7.57697 79.1908 7.57697Z" fill="white"/>
<path d="M88.7864 5.15945C87.8152 5.15945 87.0208 4.36489 87.0208 3.39376C87.0208 2.42261 87.8152 1.62805 88.7864 1.62805C89.7575 1.62805 90.5521 2.42261 90.5521 3.39376C90.5521 4.36489 89.7575 5.15945 88.7864 5.15945ZM87.6091 22.581V7.86687H89.9635V22.581H87.6091Z" fill="white"/>
<path d="M92.9004 1.09668H95.2251V22.5794H92.9004V1.09668Z" fill="white"/>
<path d="M101.259 18.5161C101.259 19.9581 102.083 20.7232 103.377 20.7232C104.437 20.7232 105.261 20.1641 106.026 19.7227L106.791 21.5472C105.879 22.3712 104.613 22.8715 102.995 22.8715C100.817 22.8715 98.9042 21.7826 98.9042 18.9281V9.89358H95.9615V7.86304H98.9042V3.6842H101.259V7.86304H106.703V9.89358H101.259V18.5161Z" fill="white"/>
<path d="M106.785 15.2936C106.785 10.997 110.228 7.55389 114.436 7.55389C118.645 7.55389 122.088 10.997 122.088 15.2936C122.088 19.5607 118.645 22.8272 114.436 22.8272C110.228 22.8272 106.785 19.5607 106.785 15.2936ZM109.139 15.2347C109.139 18.2658 111.464 20.5612 114.436 20.5612C117.409 20.5612 119.734 18.2658 119.734 15.2347C119.734 12.2036 117.409 9.73159 114.436 9.73159C111.464 9.73159 109.139 12.2036 109.139 15.2347Z" fill="white"/>
<path d="M130.258 7.57697C133.407 7.57697 135.997 9.3721 135.997 13.1684V22.5854H133.642V13.9924C133.642 10.7258 132.053 9.63695 130.023 9.63695C127.875 9.63695 125.461 10.9907 125.461 14.7575V22.5854H123.107V7.87126H125.167L125.314 10.1667C126.344 8.31269 128.228 7.57697 130.258 7.57697Z" fill="white"/>
<path d="M10.4469 7.67513V-0.000671387H13.156V7.67513H10.4469Z" fill="white"/>
<path d="M9.66323 12.8123L0.0045166 8.94882L1.01065 6.43347L11.7955 10.7474L22.5804 6.43347L23.5865 8.94882L13.975 12.7934L20.9896 21.7564L18.8561 23.4261L11.8263 14.4436L5.20903 23.3964L3.03043 21.7861L9.66323 12.8123Z" fill="white"/>
</g>
<defs>
<clipPath id="clip0_1_15296">
<rect width="136.042" height="23.4107" fill="white"/>
</clipPath>
</defs>
</svg>
