<svg width="25" height="25" viewBox="0 0 25 25" fill="none" xmlns="http://www.w3.org/2000/svg">
<rect width="24.9714" height="24.9714" rx="12.4857" fill="white" fill-opacity="0.1"/>
<path d="M16.1055 15.8584L15.856 16.1079C15.7182 16.2457 15.4947 16.2458 15.3569 16.1079L12.4872 13.2382L9.61745 16.1079C9.47966 16.2457 9.2562 16.2457 9.11838 16.1079L8.86886 15.8584C8.73104 15.7206 8.73104 15.4971 8.86882 15.3593L11.7386 12.4896L8.86884 9.61987C8.73102 9.48205 8.73103 9.25859 8.86885 9.12077L9.11837 8.87126C9.25619 8.73344 9.47964 8.73343 9.61746 8.87125L12.4872 11.741L15.3569 8.87124C15.4947 8.73342 15.7182 8.73343 15.856 8.87125L16.1055 9.12077C16.2433 9.25859 16.2433 9.48204 16.1055 9.61986L13.2358 12.4896L16.1055 15.3593C16.2434 15.4971 16.2433 15.7206 16.1055 15.8584Z" fill="white"/>
</svg>
