<svg width="39" height="36" viewBox="0 0 39 36" fill="none" xmlns="http://www.w3.org/2000/svg">
<path d="M37.8888 14.2077C37.8508 14.0154 37.7718 13.8336 37.6572 13.6745C37.5427 13.5154 37.3952 13.3829 37.2248 13.2859L32.1327 10.384L32.1123 4.64494C32.1116 4.44729 32.0681 4.25213 31.9847 4.07294C31.9013 3.89375 31.78 3.7348 31.6292 3.60707C29.782 2.04462 27.6549 0.847251 25.3609 0.0786331C25.1803 0.0174869 24.9888 -0.00514163 24.7989 0.0122048C24.609 0.0295513 24.4248 0.0864881 24.2582 0.179348L19.1217 3.05057L13.9802 0.174227C13.8135 0.080844 13.6291 0.0234772 13.4388 0.00583465C13.2486 -0.0118079 13.0567 0.0106664 12.8757 0.0718048C10.5831 0.845359 8.45833 2.04736 6.61433 3.61389C6.46371 3.74144 6.34253 3.90011 6.25913 4.07899C6.17573 4.25787 6.1321 4.4527 6.13124 4.65006L6.10563 10.3942L1.01355 13.2962C0.843196 13.3932 0.695713 13.5257 0.581132 13.6847C0.466551 13.8438 0.387557 14.0257 0.34952 14.218C-0.116507 16.5598 -0.116507 18.9705 0.34952 21.3124C0.387557 21.5047 0.466551 21.6866 0.581132 21.8456C0.695713 22.0047 0.843196 22.1372 1.01355 22.2342L6.10563 25.1361L6.12611 30.8769C6.12673 31.0745 6.17025 31.2697 6.25365 31.4489C6.33706 31.6281 6.45837 31.787 6.6092 31.9148C8.45633 33.4772 10.5834 34.6746 12.8774 35.4432C13.0581 35.5043 13.2495 35.527 13.4395 35.5096C13.6294 35.4923 13.8136 35.4353 13.9802 35.3425L19.1217 32.4627L24.2633 35.3391C24.4668 35.4524 24.6961 35.5112 24.9291 35.5098C25.0782 35.5097 25.2264 35.4855 25.3678 35.4381C27.6598 34.6649 29.7845 33.4641 31.6292 31.8994C31.7798 31.7719 31.901 31.6132 31.9844 31.4343C32.0678 31.2554 32.1114 31.0606 32.1123 30.8632L32.1379 25.1191L37.2299 22.2171C37.4003 22.1201 37.5478 21.9876 37.6624 21.8286C37.7769 21.6695 37.8559 21.4876 37.894 21.2953C38.3574 18.9553 38.3557 16.547 37.8888 14.2077ZM19.1217 24.5848C17.7713 24.5848 16.4511 24.1843 15.3282 23.434C14.2054 22.6837 13.3302 21.6173 12.8134 20.3697C12.2966 19.122 12.1614 17.7491 12.4248 16.4245C12.6883 15.1 13.3386 13.8834 14.2935 12.9284C15.2485 11.9735 16.4651 11.3232 17.7896 11.0597C19.1142 10.7963 20.4871 10.9315 21.7348 11.4483C22.9824 11.9651 24.0488 12.8403 24.7991 13.9631C25.5494 15.086 25.9499 16.4062 25.9499 17.7566C25.9499 19.5676 25.2305 21.3043 23.95 22.5849C22.6694 23.8654 20.9327 24.5848 19.1217 24.5848Z" fill="#FF4C00"/>
</svg>
