<svg width="33" height="39" viewBox="0 0 33 39" fill="none" xmlns="http://www.w3.org/2000/svg">
<path d="M16.3875 5.4625C13.1464 5.4625 9.97801 6.42361 7.2831 8.22429C4.58819 10.025 2.48776 12.5844 1.24743 15.5788C0.00710048 18.5732 -0.317427 21.8682 0.314889 25.047C0.947204 28.2259 2.50796 31.1459 4.7998 33.4377C7.09163 35.7295 10.0116 37.2903 13.1905 37.9226C16.3693 38.5549 19.6643 38.2304 22.6587 36.9901C25.6532 35.7497 28.2125 33.6493 30.0132 30.9544C31.8139 28.2595 32.775 25.0911 32.775 21.85C32.77 17.5053 31.0419 13.34 27.9697 10.2678C24.8976 7.1956 20.7322 5.46747 16.3875 5.4625ZM24.1818 15.9881L17.3537 22.8162C17.2268 22.9431 17.0762 23.0437 16.9104 23.1124C16.7446 23.181 16.5669 23.2164 16.3875 23.2164C16.2081 23.2164 16.0304 23.181 15.8646 23.1124C15.6988 23.0437 15.5482 22.9431 15.4213 22.8162C15.2944 22.6893 15.1938 22.5387 15.1251 22.3729C15.0565 22.2071 15.0211 22.0294 15.0211 21.85C15.0211 21.6706 15.0565 21.4929 15.1251 21.3271C15.1938 21.1613 15.2944 21.0107 15.4213 20.8838L22.2495 14.0557C22.3763 13.9288 22.527 13.8282 22.6927 13.7595C22.8585 13.6908 23.0362 13.6555 23.2156 13.6555C23.3951 13.6555 23.5727 13.6908 23.7385 13.7595C23.9043 13.8282 24.0549 13.9288 24.1818 14.0557C24.3087 14.1826 24.4093 14.3332 24.478 14.499C24.5467 14.6648 24.582 14.8424 24.582 15.0219C24.582 15.2013 24.5467 15.379 24.478 15.5448C24.4093 15.7105 24.3087 15.8612 24.1818 15.9881ZM10.925 1.36563C10.925 1.00344 11.0689 0.656087 11.325 0.399982C11.5811 0.143878 11.9284 0 12.2906 0H20.4844C20.8466 0 21.1939 0.143878 21.45 0.399982C21.7061 0.656087 21.85 1.00344 21.85 1.36563C21.85 1.72781 21.7061 2.07516 21.45 2.33127C21.1939 2.58737 20.8466 2.73125 20.4844 2.73125H12.2906C11.9284 2.73125 11.5811 2.58737 11.325 2.33127C11.0689 2.07516 10.925 1.72781 10.925 1.36563Z" fill="#FF4C00"/>
</svg>
