<svg width="35" height="37" viewBox="0 0 35 37" fill="none" xmlns="http://www.w3.org/2000/svg">
<path d="M33.5067 9.40645C33.1853 9.57292 32.8109 9.60493 32.4658 9.49546C32.1207 9.38599 31.8333 9.14399 31.6666 8.82265C30.3631 6.24757 28.3901 4.07112 25.9548 2.52199C25.8031 2.42627 25.6716 2.3016 25.5681 2.15508C25.4645 2.00857 25.3908 1.84309 25.3512 1.6681C25.3115 1.4931 25.3068 1.31201 25.3371 1.13517C25.3675 0.958324 25.4324 0.789193 25.5281 0.637429C25.6238 0.485666 25.7485 0.354242 25.895 0.250662C26.0415 0.147082 26.207 0.0733729 26.382 0.0337448C26.557 -0.00588334 26.7381 -0.0106551 26.9149 0.0197021C27.0917 0.0500592 27.2609 0.114951 27.4126 0.210672C30.2507 2.02787 32.5553 4.56627 34.0905 7.56627C34.257 7.88774 34.289 8.26214 34.1796 8.60721C34.0701 8.95227 33.8281 9.23974 33.5067 9.40645ZM1.36505 9.56008C1.61524 9.55998 1.86059 9.49115 2.07432 9.3611C2.28806 9.23105 2.46196 9.04479 2.57705 8.82265C3.88054 6.24757 5.85355 4.07112 8.28877 2.52199C8.59527 2.32868 8.81242 2.02152 8.89246 1.6681C8.97249 1.31467 8.90885 0.94393 8.71553 0.637429C8.52221 0.330929 8.21506 0.113777 7.86163 0.0337448C7.50821 -0.0462878 7.13747 0.0173546 6.83097 0.210672C3.99286 2.02787 1.68833 4.56627 0.153061 7.56627C0.0452413 7.77439 -0.00719675 8.00676 0.000793942 8.24101C0.00878463 8.47527 0.0769349 8.70352 0.198686 8.90381C0.320437 9.1041 0.491691 9.26968 0.695966 9.38462C0.900242 9.49956 1.13066 9.55998 1.36505 9.56008ZM33.1329 27.303C33.3748 27.7178 33.5031 28.1892 33.5047 28.6695C33.5064 29.1497 33.3814 29.6219 33.1423 30.0385C32.9032 30.455 32.5585 30.8011 32.143 31.0419C31.7274 31.2828 31.2558 31.4097 30.7755 31.4101H23.8108C23.4974 32.9536 22.66 34.3414 21.4404 35.3381C20.2209 36.3349 18.6943 36.8794 17.1192 36.8794C15.5442 36.8794 14.0176 36.3349 12.7981 35.3381C11.5785 34.3414 10.7411 32.9536 10.4277 31.4101H3.46299C2.98301 31.4091 2.51176 31.2817 2.0967 31.0407C1.68164 30.7996 1.33743 30.4534 1.09875 30.037C0.860076 29.6206 0.735355 29.1486 0.737153 28.6686C0.738952 28.1886 0.867206 27.7176 1.109 27.303C2.64703 24.6485 3.46299 20.8743 3.46299 16.3882C3.46299 12.7663 4.90177 9.29282 7.46282 6.73178C10.0239 4.17074 13.4974 2.73196 17.1192 2.73196C20.7411 2.73196 24.2146 4.17074 26.7757 6.73178C29.3367 9.29282 30.7755 12.7663 30.7755 16.3882C30.7755 20.8726 31.5915 24.6468 33.1329 27.303ZM20.9805 31.4101H13.2579C13.5409 32.208 14.064 32.8986 14.7555 33.3871C15.4469 33.8755 16.2727 34.1378 17.1192 34.1378C17.9658 34.1378 18.7916 33.8755 19.483 33.3871C20.1745 32.8986 20.6976 32.208 20.9805 31.4101Z" fill="#FF4C00"/>
</svg>
