<svg width="35" height="31" viewBox="0 0 35 31" fill="none" xmlns="http://www.w3.org/2000/svg">
<path d="M21.85 1.36563V17.7531C21.85 18.1153 21.7061 18.4627 21.45 18.7188C21.1939 18.9749 20.8466 19.1187 20.4844 19.1187H13.6562C13.2941 19.1187 12.9467 18.9749 12.6906 18.7188C12.4345 18.4627 12.2906 18.1153 12.2906 17.7531V1.36563C12.2906 1.00344 12.4345 0.656087 12.6906 0.399983C12.9467 0.143878 13.2941 0 13.6562 0H20.4844C20.8466 0 21.1939 0.143878 21.45 0.399983C21.7061 0.656087 21.85 1.00344 21.85 1.36563ZM32.775 0H25.9469C25.5847 0 25.2373 0.143878 24.9812 0.399983C24.7251 0.656087 24.5813 1.00344 24.5813 1.36563V10.2422C24.5813 10.4233 24.6532 10.597 24.7812 10.725C24.9093 10.8531 25.083 10.925 25.2641 10.925H33.4578C33.6389 10.925 33.8126 10.8531 33.9406 10.725C34.0687 10.597 34.1406 10.4233 34.1406 10.2422V1.36563C34.1406 1.00344 33.9967 0.656087 33.7406 0.399983C33.4845 0.143878 33.1372 0 32.775 0ZM33.4578 13.6562H25.2641C25.083 13.6562 24.9093 13.7282 24.7812 13.8562C24.6532 13.9843 24.5813 14.158 24.5813 14.3391V21.85C24.5813 22.5744 24.869 23.2691 25.3812 23.7813C25.8934 24.2935 26.5881 24.5813 27.3125 24.5813H31.4094C32.1337 24.5813 32.8285 24.2935 33.3407 23.7813C33.8529 23.2691 34.1406 22.5744 34.1406 21.85V14.3391C34.1406 14.158 34.0687 13.9843 33.9406 13.8562C33.8126 13.7282 33.6389 13.6562 33.4578 13.6562ZM8.19375 0H1.36563C1.00344 0 0.656087 0.143878 0.399983 0.399983C0.143878 0.656087 0 1.00344 0 1.36563V10.2422C0 10.4233 0.0719391 10.597 0.199991 10.725C0.328043 10.8531 0.501719 10.925 0.682813 10.925H8.87656C9.05766 10.925 9.23133 10.8531 9.35938 10.725C9.48744 10.597 9.55937 10.4233 9.55937 10.2422V1.36563C9.55937 1.00344 9.4155 0.656087 9.15939 0.399983C8.90329 0.143878 8.55594 0 8.19375 0ZM8.87656 13.6562H0.682813C0.501719 13.6562 0.328043 13.7282 0.199991 13.8562C0.0719391 13.9843 0 14.158 0 14.3391V27.3125C0 28.0369 0.287756 28.7316 0.799964 29.2438C1.31217 29.756 2.00688 30.0438 2.73125 30.0438H6.82812C7.5525 30.0438 8.2472 29.756 8.75941 29.2438C9.27162 28.7316 9.55937 28.0369 9.55937 27.3125V14.3391C9.55937 14.158 9.48744 13.9843 9.35938 13.8562C9.23133 13.7282 9.05766 13.6562 8.87656 13.6562Z" fill="#FF4C00"/>
</svg>
