<svg width="36" height="36" viewBox="0 0 36 36" fill="none" xmlns="http://www.w3.org/2000/svg">
<path d="M16.3928 23.5468V34.7006C16.3935 34.7972 16.3736 34.893 16.3345 34.9814C16.2954 35.0698 16.2379 35.1489 16.1659 35.2134C16.094 35.278 16.0091 35.3265 15.917 35.3558C15.8248 35.3851 15.7275 35.3945 15.6315 35.3834C12.476 34.9958 9.48181 33.7703 6.96019 31.834C4.43857 29.8978 2.48153 27.3215 1.29244 24.373C1.2569 24.2834 1.24074 24.1872 1.24504 24.0909C1.24934 23.9946 1.27398 23.9003 1.31736 23.8141C1.36074 23.728 1.42187 23.6521 1.49672 23.5913C1.57157 23.5305 1.65845 23.4863 1.75163 23.4615L12.5213 20.5698C12.6592 20.5336 12.8049 20.5415 12.9381 20.5923C13.0712 20.6431 13.1851 20.7343 13.2639 20.8531C13.9159 21.7965 14.8463 22.5126 15.9251 22.9016C16.0608 22.9466 16.179 23.0331 16.2629 23.1489C16.3468 23.2647 16.3923 23.4038 16.3928 23.5468ZM17.7687 3.8412e-05C17.5885 -0.0013131 17.4098 0.0330122 17.243 0.101036C17.0761 0.16906 16.9243 0.269437 16.7964 0.396381C16.6685 0.523326 16.567 0.674328 16.4978 0.840685C16.4285 1.00704 16.3928 1.18546 16.3928 1.36566V10.925C16.3901 11.2842 16.5301 11.6298 16.782 11.8858C17.0339 12.1419 17.3771 12.2875 17.7363 12.2907C19.026 12.2851 20.2761 12.7361 21.2653 13.5637C22.2544 14.3914 22.9188 15.5424 23.1408 16.8128C23.3628 18.0833 23.1281 19.3914 22.4783 20.5055C21.8284 21.6195 20.8053 22.4677 19.5901 22.8999C19.4544 22.9453 19.3365 23.0322 19.2529 23.1483C19.1692 23.2643 19.1242 23.4038 19.1241 23.5468V34.7006C19.1235 34.7971 19.1433 34.8926 19.1823 34.9809C19.2214 35.0692 19.2786 35.1482 19.3504 35.2127C19.4222 35.2772 19.5068 35.3258 19.5988 35.3552C19.6907 35.3846 19.7878 35.3942 19.8837 35.3834C24.3826 34.8513 28.5078 32.6195 31.4147 29.1449C34.3217 25.6704 35.7903 21.216 35.52 16.6938C35.2497 12.1717 33.2609 7.924 29.9608 4.82047C26.6606 1.71694 22.2989 -0.00757555 17.7687 3.8412e-05ZM12.3062 17.3247C12.3698 16.518 12.6117 15.7356 13.0146 15.0339V15.0219C13.1499 14.7882 13.2129 14.5196 13.1956 14.2501C13.1783 13.9806 13.0814 13.7223 12.9173 13.5078C12.8025 13.3602 12.6598 13.2367 12.4974 13.1442L4.24731 8.37473C4.09187 8.2851 3.92029 8.22698 3.74237 8.20369C3.56446 8.18041 3.38369 8.19241 3.21042 8.23902C3.03714 8.28563 2.87475 8.36593 2.73253 8.47533C2.5903 8.58473 2.47103 8.72108 2.38153 8.8766C0.39473 12.3176 -0.381765 16.3251 0.176044 20.2591C0.189206 20.3551 0.222656 20.4472 0.274172 20.5293C0.325688 20.6114 0.394088 20.6816 0.474825 20.7352C0.555563 20.7888 0.646787 20.8246 0.742434 20.8402C0.838081 20.8559 0.935959 20.8509 1.02956 20.8258L11.8214 17.9239C11.9552 17.8869 12.0742 17.8095 12.1622 17.7022C12.2502 17.5949 12.3029 17.4631 12.313 17.3247H12.3062Z" fill="#FF4C00"/>
</svg>
